<svg xmlns="http://www.w3.org/2000/svg" width="400" height="400" viewBox="-55 -55 110 110" fill="none"><circle r="50" fill="#ebc17a"/><rect y="12" width="46" height="24" fill="#f2d39d" rx="12"/><rect x="-10" y="-20" width="52" height="24" fill="#f2d39d" rx="12"/><rect x="-10" y="-50" width="36" height="20" fill="#f2d39d" rx="10"/><rect x="-50" y="-30" width="38" height="24" fill="#ed8e5a" rx="12"/><rect x="-45" y="10" width="52" height="24" fill="#f2d39d" rx="12"/><rect x="-30" width="52" height="24" fill="#ed8e5a" rx="12"/><rect x="-17" y="30" width="40" height="18" fill="#f0a278" rx="9"/><rect x="-25" y="-35" width="45" height="24" fill="#f0a278" rx="12"/><rect y="10" width="35" height="24" fill="#bf6432" rx="12"/><rect x="-5" y="-30" width="38" height="24" fill="#ed8e5a" rx="12"/><path d="M-35.35 35.35a50 50 0 0 0 70.7-70.7 60 60 0 0 1-70.7 70.7" fill="#0005"/><circle r="50" stroke="#422" stroke-width="8"/></svg>