<svg xmlns="http://www.w3.org/2000/svg" width="400" height="400" viewBox="-55 -55 110 110" fill="none">
  <!-- <path d="M-79.874 29.072A85 35-20 0 1 79.874-29.072" stroke="#edce87" stroke-width="40"/>
  <path d="M-98.668 35.912A105 55-20 0 1 98.668-35.912" stroke="#433" stroke-width="16"/>
  <path d="M-61.08 22.231A65 15-20 0 1 61.08-22.23" stroke="#433" stroke-width="16"/> -->
  <circle r="50" fill="#f0e7a5"/>
  <rect y="18" width="40" height="24" fill="#fff39c" rx="12"/>
  <rect x="-10" y="-20" width="52" height="24" fill="#edce87" rx="12"/>
  <rect x="-10" y="-50" width="36" height="20" fill="#fff39c" rx="10"/>
  <rect x="-50" y="-30" width="38" height="24" fill="#edce87" rx="12"/>
  <rect x="-45" y="10" width="52" height="24" fill="#edce87" rx="12"/>
  <rect x="-30" width="52" height="24" fill="#f5eddc" rx="12"/>
  <path d="M-35.35 35.35a50 50 0 0 0 70.7-70.7 60 60 0 0 1-70.7 70.7" fill="#0005"/>
  <circle r="50" stroke="#433" stroke-width="8"/>
  <!-- <path d="M-79.942 28.884A85 39.667-20 0 0 79.805-29.26" stroke="#edce87" stroke-width="40"/>
  <path d="M-98.805 35.536A105 60.79-20 0 0 98.531-36.288" stroke="#433" stroke-width="16"/>
  <path d="M-61.217 21.855a65 17.727-20 0 0 122.16-44.462" stroke="#433" stroke-width="16"/> -->
</svg>
