<svg xmlns="http://www.w3.org/2000/svg" width="400" height="400" viewBox="-56 -56 112 112" fill="none"><path d="m0 50 10.353-11.363L25 43.301l3.284-15.017L43.301 25l-4.664-14.647L50 0 38.637-10.353 43.301-25l-15.017-3.284L25-43.301l-14.647 4.664L0-50l-10.353 11.363L-25-43.301l-3.284 15.017L-43.301-25l4.664 14.647L-50 0l11.363 10.353L-43.301 25l15.017 3.284L-25 43.301l14.647-4.664Z" fill="#f7b720"/><path d="m0 35 7.247-7.954L17.5 30.31l2.299-10.512L30.311 17.5 27.046 7.247 35 0l-7.954-7.247L30.31-17.5l-10.512-2.299L17.5-30.311 7.247-27.046 0-35l-7.247 7.954L-17.5-30.31l-2.299 10.512-10.512 2.299 3.265 10.253L-35 0l7.954 7.247L-30.31 17.5l10.512 2.299 2.299 10.512 10.253-3.265Z" fill="#fcdb53"/><path d="m0 50 10.353-11.363L25 43.301l3.284-15.017L43.301 25l-4.664-14.647L50 0 38.637-10.353 43.301-25l-15.017-3.284L25-43.301l-14.647 4.664L0-50l-10.353 11.363L-25-43.301l-3.284 15.017L-43.301-25l4.664 14.647L-50 0l11.363 10.353L-43.301 25l15.017 3.284L-25 43.301l14.647-4.664Z" stroke="#3b3b3b" stroke-width="8"/></svg>